<?xml version="1.0" encoding="UTF-8"?>
<!DOCTYPE svg PUBLIC "-//W3C//DTD SVG 1.1//EN" "http://www.w3.org/Graphics/SVG/1.1/DTD/svg11.dtd">
<!-- Creator: CorelDRAW -->
<svg xmlns="http://www.w3.org/2000/svg" xml:space="preserve" width="78.3366mm" height="26.3515mm" version="1.1" style="shape-rendering:geometricPrecision; text-rendering:geometricPrecision; image-rendering:optimizeQuality; fill-rule:evenodd; clip-rule:evenodd"
viewBox="0 0 7826.07 2632.6"
 xmlns:xlink="http://www.w3.org/1999/xlink"
 xmlns:xodm="http://www.corel.com/coreldraw/odm/2003">
 <defs>
  <style type="text/css">
   <![CDATA[
    .fil3 {fill:none;fill-rule:nonzero}
    .fil0 {fill:#434242;fill-rule:nonzero}
    .fil2 {fill:#2B2A29;fill-rule:nonzero}
    .fil4 {fill:#EA544A;fill-rule:nonzero}
    .fil1 {fill:#2B2A29;fill-rule:nonzero;fill-opacity:0.380392}
   ]]>
  </style>
    <clipPath id="id0" style="clip-rule:nonzero">
     <path d="M3636.33 1635.02l0 -882.99c-89.48,119.13 -143.37,271.97 -143.37,441.48 0,169.56 53.89,322.42 143.37,441.51z"/>
    </clipPath>
    <clipPath id="id1" style="clip-rule:nonzero">
     <path d="M3636.33 1635.02l0 -882.99c-89.48,119.13 -143.37,271.97 -143.37,441.48 0,169.56 53.89,322.42 143.37,441.51z"/>
    </clipPath>
 </defs>
 <g id="Слой_x0020_1">
  <metadata id="CorelCorpID_0Corel-Layer"/>
  <g id="_2682862425952">
   <path class="fil0" d="M3232.98 0l0 652.53c-88.7,-100.37 -220.48,-161.15 -400.66,-161.15 -352.25,0 -642.65,303.82 -642.65,697.43 0,393.65 290.4,697.42 642.65,697.42 180.19,0 311.96,-60.75 400.66,-161.12l0 124.15 403.35 0 0 -1849.26 -403.35 0zm-319.98 1511.12c-185.56,0 -319.98,-124.19 -319.98,-322.32 0,-198.14 134.42,-322.29 319.98,-322.29 185.53,0 319.98,124.15 319.98,322.29 0,198.13 -134.45,322.32 -319.98,322.32z"/>
   <g style="clip-path:url(#id0)">
    <polygon class="fil1" points="3492.96,752.03 3636.33,752.03 3636.33,1635.02 3492.96,1635.02 "/>
   </g>
   <g style="clip-path:url(#id1)">
    <g>
     <path id="_1" class="fil2" d="M5180.21 398.39l0 652.53c-88.73,-100.37 -220.51,-161.16 -400.66,-161.16 -352.24,0 -642.64,303.83 -642.64,697.43 0,393.65 290.4,697.43 642.64,697.43 180.16,0 311.93,-60.75 400.66,-161.12l0 106.84c81.57,-9.93 148,-15.2 190.96,-32.86 54.54,-22.38 81.09,-43.81 147.68,-60.72 20.56,-5.21 42.16,-9.73 64.69,-13.7l0 -1724.67 -403.33 0zm-320.01 1511.11c-185.52,0 -319.97,-124.18 -319.97,-322.32 0,-198.13 134.45,-322.29 319.97,-322.29 185.53,0 320.01,124.16 320.01,322.29 0,198.14 -134.48,322.32 -320.01,322.32z"/>
    </g>
   </g>
   <path class="fil3" d="M3636.33 1635.02l0 -882.99c-89.48,119.13 -143.37,271.97 -143.37,441.48 0,169.56 53.89,322.42 143.37,441.51z"/>
   <path class="fil0" d="M403.35 763.49l0 -235.14 -403.35 0 0 1320.91 403.35 0 0 -597.05c0,-217.04 163.03,-299.13 313.68,-306.03 52.67,-2.28 61.88,0.78 109.33,15.23 41.75,-155.38 135.64,-287.46 262.36,-378.88 -113.67,-61.34 -281.42,-95.95 -403.86,-65.94 -126.68,31.08 -240.63,112.36 -281.51,246.91z"/>
   <path class="fil0" d="M1260.29 1347.31l922.16 0c10.76,-50.17 16.12,-103.03 16.12,-158.51 0,-398.89 -257.95,-697.43 -650.56,-697.43 -424.85,0 -715.25,303.82 -715.25,697.43 0,393.65 285.02,697.42 744.86,697.42 255.42,0 454.39,-92.45 586.16,-272.08l-322.67 -182.28c-53.76,58.09 -147.9,100.37 -258.13,100.37 -147.9,0 -271.59,-47.55 -322.7,-184.93zm-8.05 -295.86c37.63,-134.73 139.82,-208.71 293.12,-208.71 121,0 242.01,55.48 285,208.71l-578.12 0z"/>
   <g>
    <path class="fil4" d="M7433.49 528.35l0 134.76c-88.74,-108.33 -217.83,-171.73 -392.59,-171.73 -381.82,0 -661.46,306.46 -661.46,671.03 0,83.28 14.67,163.5 41.72,237.77 45.09,-79.32 75.67,-169.22 152.08,-276.2 62.81,-87.99 -38,-151.08 194.35,-208.37 102.72,-25.35 251.44,-63.88 327.09,11.35 37.1,36.88 86.25,21.32 177.61,23.5 94.51,2.28 223.87,-21.47 181.09,106.84 -12.98,38.91 -6.14,43.72 -14.7,86.5 -25.89,129.67 -160.69,121.28 -267.59,133.79 -39.4,4.63 -52.17,0.5 -76.95,24.91 -81.09,80 -6.3,229.18 -177.48,325.68 -1.68,30.3 9.14,36.16 7.77,60.38 -3.12,55.91 -8.86,-10.14 -16.6,47.08 -2.9,21.28 -11.14,53.29 -13.88,81.93 46.86,10.33 95.98,15.85 146.93,15.85 174.76,0 303.85,-63.41 392.59,-171.7l0 121.49c0,34.21 -3.88,65.35 -11.3,93.39l-1.22 0c-32.29,121.78 -132.11,185.28 -278.26,189.12l-4.31 0.13 -2.81 0.03 -5.96 0.03 -1.21 0 -4.88 -0.03 -3.37 -0.03 -2.65 -0.06 -5.46 -0.1 -0.47 -0.03c-119.84,-3.59 -191.86,-42.62 -241.2,-98l0.32 1.72c-11.67,-12.89 -22.06,-26.68 -31.55,-41.13l-240.95 315.3c122.85,108.64 290.19,164.31 480.76,170.45l5.3 0.16 4.63 0.15 0.65 0 5.3 0.13 5.33 0.06 5.3 0.06 5.36 0.06 4.13 0 1.21 0 14.33 -0.12c352.62,-4.97 695.53,-193.39 695.53,-631.29l0 -1254.85 -392.58 0z"/>
    <path class="fil4" d="M4597.86 0l0 652.53c-88.73,-100.37 -220.51,-161.15 -400.66,-161.15 -352.25,0 -642.65,303.82 -642.65,697.43 0,393.65 290.4,697.42 642.65,697.42 180.16,0 311.93,-60.75 400.66,-161.12l0 106.84c81.56,-9.92 148,-15.2 190.95,-32.86 54.55,-22.37 81.1,-43.81 147.69,-60.72 20.56,-5.2 42.15,-9.73 64.68,-13.7l0 -1724.67 -403.32 0zm-320.01 1511.12c-185.53,0 -319.98,-124.19 -319.98,-322.32 0,-198.14 134.45,-322.29 319.98,-322.29 185.53,0 320.01,124.15 320.01,322.29 0,198.13 -134.48,322.32 -320.01,322.32z"/>
    <path class="fil4" d="M6321.75 1521.04c53.33,-98 83.53,-210.87 83.53,-332.24 0,-393.62 -317.29,-697.43 -712.56,-697.43 -395.28,0 -712.57,303.82 -712.57,697.43 0,206.59 87.44,388.37 227.62,514.55 340.39,-18.06 768.26,16.35 998.85,-103.15 49.26,-25.56 86.24,-51.77 115.13,-79.16zm-629.03 -20.5c-174.8,0 -309.25,-124.15 -309.25,-311.74 0,-187.56 134.45,-311.72 309.25,-311.72 174.76,0 309.21,124.16 309.21,311.72 0,187.59 -134.45,311.74 -309.21,311.74z"/>
   </g>
   <path class="fil0" d="M354.01 2382.62l45.56 -210.17 89.57 0 -88.58 330.1 -77.64 0 -65.7 -207.77 -65.82 207.77 -77.3 0 -88.59 -330.1 89.56 0 45.24 209.86 63.5 -209.86 67.02 0 63.18 210.17zm365.5 126.18c-50.92,0 -92.41,-14.9 -124.39,-44.59 -31.98,-29.7 -47.96,-69.29 -47.96,-118.78l0 -8.54c0,-33.14 6.79,-62.84 20.25,-88.99 13.48,-26.14 32.54,-46.38 57.27,-60.43 24.75,-14.18 52.89,-21.26 84.54,-21.26 47.52,0 84.87,14.28 112.13,42.72 27.26,28.55 40.84,68.98 40.84,121.28l0 36.07 -220.97 0c2.95,21.57 12.05,38.75 27.04,51.78 15.12,13.03 34.17,19.49 57.26,19.49 35.82,0 63.62,-12.3 83.77,-36.78l45.55 48.55c-13.9,18.65 -32.74,33.34 -56.5,43.77 -23.66,10.52 -50.04,15.72 -78.84,15.72zm-10.62 -271.33c-18.4,0 -33.29,5.94 -44.79,17.81 -11.39,11.89 -18.72,28.87 -21.9,50.96l128.88 0 0 -7.08c-0.44,-19.59 -5.91,-34.81 -16.64,-45.54 -10.73,-10.73 -25.84,-16.15 -45.56,-16.15zm543.22 103.06c0,52.93 -11.94,94.19 -35.59,123.88 -23.77,29.6 -56.94,44.39 -99.53,44.39 -37.55,0 -67.67,-13.75 -90.13,-41.36l-4.16 35.12 -83.44 0 0 -468.89 92.75 0 0 168.27c21.35,-23.86 49.49,-35.74 84.43,-35.74 42.26,0 75.44,14.8 99.53,44.4 24.09,29.69 36.13,71.36 36.13,125.03l0 4.91zm-92.75 -6.67c0,-33.45 -5.59,-57.94 -16.64,-73.25 -11.17,-15.43 -27.69,-23.14 -49.71,-23.14 -29.57,0 -49.93,11.57 -60.99,34.6l0 130.55c11.27,23.25 31.86,34.92 61.54,34.92 30,0 49.71,-14.07 59.02,-42.2 4.48,-13.45 6.78,-33.98 6.78,-61.48zm161.5 49.07c0,-20.53 6.02,-39.59 18.16,-57.09 12.06,-17.5 34.29,-36.99 66.59,-58.35 -13.91,-17.72 -24.86,-34.39 -32.74,-49.91 -7.88,-15.63 -11.94,-31.89 -11.94,-48.77 0,-34.59 11.5,-62.82 34.5,-84.5 22.99,-21.68 53.98,-32.51 92.97,-32.51 34.82,0 63.4,9.89 85.74,29.6 22.34,19.79 33.51,44.38 33.51,73.98 0,35.42 -18.72,66.58 -56.4,93.67l-35.92 24.8 80.48 89.2c12.59,-23.66 18.95,-49.71 18.95,-78.15l78.94 0c0,57.82 -14.01,104.61 -42.04,140.45l69.85 77.22 -105.13 0 -24.09 -26.25c-34.5,21.67 -74.02,32.5 -118.69,32.5 -46.22,0 -83.23,-11.56 -111.03,-34.7 -27.82,-23.13 -41.72,-53.45 -41.72,-91.17zm157.24 54.61c22.23,0 43.25,-5.94 63.19,-17.71l-92.09 -101.07 -6.68 4.48c-19.05,15.52 -28.57,33.65 -28.57,54.6 0,17.61 5.9,32 17.74,43.14 11.93,11.05 27.36,16.57 46.41,16.57zm-34.05 -269.98c0,15.31 9.41,34.49 28.24,57.72l24.75 -15.62c12.6,-7.72 21.36,-15.23 26.07,-22.51 4.82,-7.4 7.21,-16.05 7.21,-26.26 0,-10.21 -3.94,-18.96 -11.82,-26.56 -7.88,-7.5 -18.06,-11.26 -30.44,-11.26 -13.25,0 -23.98,4.07 -31.97,12.2 -7.99,8.12 -12.05,18.95 -12.05,32.3zm331.01 167.55c0,-51.57 12.16,-92.53 36.35,-123.06 24.31,-30.52 57.47,-45.85 99.63,-45.85 33.85,0 61.76,11.98 83.78,36.06l0 -168.59 92.96 0 0 468.89 -83.66 0 -4.48 -35.12c-23.12,27.61 -52.89,41.36 -89.25,41.36 -40.83,0 -73.58,-15.32 -98.32,-45.95 -24.65,-30.63 -37.01,-73.26 -37.01,-127.75zm92.74 6.25c0,31.05 5.59,54.8 16.97,71.37 11.28,16.56 27.82,24.81 49.39,24.81 28.68,0 48.83,-11.57 60.66,-34.6l0 -130.87c-11.6,-23.03 -31.54,-34.6 -60.01,-34.6 -44.67,0 -67.01,34.6 -67.01,103.89zm476.65 167.44c-50.92,0 -92.43,-14.9 -124.4,-44.59 -31.97,-29.7 -47.96,-69.29 -47.96,-118.78l0 -8.54c0,-33.14 6.79,-62.84 20.26,-88.99 13.47,-26.14 32.52,-46.38 57.27,-60.43 24.74,-14.18 52.89,-21.26 84.54,-21.26 47.5,0 84.85,14.28 112.12,42.72 27.26,28.55 40.85,68.98 40.85,121.28l0 36.07 -220.99 0c2.96,21.57 12.05,38.75 27.04,51.78 15.13,13.03 34.18,19.49 57.27,19.49 35.81,0 63.63,-12.3 83.78,-36.78l45.55 48.55c-13.91,18.65 -32.75,33.34 -56.51,43.77 -23.66,10.52 -50.05,15.72 -78.83,15.72zm-10.63 -271.33c-18.39,0 -33.29,5.94 -44.79,17.81 -11.38,11.89 -18.72,28.87 -21.89,50.96l128.87 0 0 -7.08c-0.44,-19.59 -5.92,-34.81 -16.65,-45.54 -10.72,-10.73 -25.83,-16.15 -45.55,-16.15zm418.38 173.91c0,-10.74 -5.69,-19.28 -16.86,-25.43 -11.27,-6.25 -29.22,-11.78 -54.08,-16.67 -82.57,-16.46 -123.86,-49.91 -123.86,-100.13 0,-29.38 12.82,-53.87 38.33,-73.46 25.62,-19.69 59.02,-29.49 100.3,-29.49 44.02,0 79.28,9.9 105.67,29.59 26.39,19.79 39.64,45.43 39.64,77.01l-92.75 0c0,-12.61 -4.27,-22.92 -12.82,-31.16 -8.53,-8.22 -21.89,-12.29 -40.07,-12.29 -15.65,0 -27.7,3.33 -36.24,10 -8.54,6.77 -12.82,15.32 -12.82,25.64 0,9.69 4.82,17.61 14.58,23.54 9.74,6.04 26.16,11.26 49.26,15.53 23.12,4.38 42.49,9.38 58.37,14.8 48.94,17.09 73.48,46.78 73.48,88.87 0,30.12 -13.59,54.51 -40.74,73.16 -27.15,18.64 -62.3,27.91 -105.24,27.91 -29.12,0 -54.97,-4.89 -77.52,-14.79 -22.56,-9.91 -40.18,-23.46 -53.11,-40.64 -12.81,-17.19 -19.15,-35.75 -19.15,-55.75l87.81 0c0.87,15.73 7,27.71 18.29,36.15 11.38,8.34 26.6,12.51 45.55,12.51 17.73,0 31.21,-3.23 40.29,-9.59 9.09,-6.46 13.69,-14.91 13.69,-25.32zm272.21 91.17l-92.96 0 0 -330.1 92.96 0 0 330.1zm-98.43 -415.34c0,-13.13 4.61,-24.07 13.91,-32.62 9.31,-8.54 22.01,-12.81 38.09,-12.81 15.77,0 28.37,4.27 37.79,12.81 9.41,8.55 14.13,19.49 14.13,32.62 0,13.45 -4.72,24.49 -14.24,33.04 -9.53,8.54 -22.13,12.81 -37.68,12.81 -15.64,0 -28.24,-4.27 -37.77,-12.81 -9.52,-8.55 -14.23,-19.59 -14.23,-33.04zm186.14 247.89c0,-50.75 12.6,-91.59 37.99,-122.54 25.3,-30.94 59.45,-46.37 102.49,-46.37 38.11,0 67.67,12.51 88.81,37.41l3.93 -31.16 84 0 0 319.15c0,28.87 -6.9,53.99 -20.69,75.35 -13.81,21.35 -33.19,37.71 -58.26,48.86 -24.96,11.15 -54.31,16.78 -87.81,16.78 -25.52,0 -50.26,-4.8 -74.47,-14.49 -24.19,-9.7 -42.49,-22.09 -54.86,-37.3l41.07 -53.67c23.1,24.5 51.13,36.68 84.1,36.68 24.52,0 43.68,-6.26 57.36,-18.75 13.69,-12.51 20.59,-30.12 20.59,-53.15l0 -17.6c-21.46,23.03 -49.61,34.48 -84.42,34.48 -41.72,0 -75.46,-15.51 -101.19,-46.56 -25.83,-31.06 -38.64,-72.22 -38.64,-123.48l0 -3.65zm92.75 6.25c0,30 6.22,53.56 18.82,70.54 12.71,17.09 30.02,25.64 52.03,25.64 28.24,0 48.39,-10.11 60.65,-30.33l0 -139.41c-12.47,-20.21 -32.41,-30.32 -60,-30.32 -22.23,0 -39.74,8.65 -52.45,26.05 -12.7,17.39 -19.05,43.24 -19.05,77.83zm405.58 -168.91l2.95 38.14c24.76,-29.6 58.05,-44.4 99.76,-44.4 36.79,0 64.17,10.32 82.12,30.85 17.96,20.52 27.16,51.26 27.6,92.11l0 213.39 -92.75 0 0 -211.63c0,-18.64 -4.27,-32.3 -12.81,-40.74 -8.54,-8.44 -22.78,-12.71 -42.71,-12.71 -26.05,0 -45.66,10.63 -58.69,31.78l0 233.3 -92.74 0 0 -330.1 87.27 0zm658.86 238.93c0,-10.74 -5.7,-19.28 -16.86,-25.43 -11.28,-6.25 -29.24,-11.78 -54.1,-16.67 -82.56,-16.46 -123.85,-49.91 -123.85,-100.13 0,-29.38 12.83,-53.87 38.33,-73.46 25.62,-19.69 59.02,-29.49 100.31,-29.49 44.01,0 79.27,9.9 105.66,29.59 26.39,19.79 39.64,45.43 39.64,77.01l-92.75 0c0,-12.61 -4.27,-22.92 -12.82,-31.16 -8.53,-8.22 -21.89,-12.29 -40.07,-12.29 -15.65,0 -27.69,3.33 -36.24,10 -8.54,6.77 -12.82,15.32 -12.82,25.64 0,9.69 4.82,17.61 14.57,23.54 9.75,6.04 26.17,11.26 49.27,15.53 23.12,4.38 42.49,9.38 58.37,14.8 48.94,17.09 73.48,46.78 73.48,88.87 0,30.12 -13.59,54.51 -40.75,73.16 -27.14,18.64 -62.29,27.91 -105.23,27.91 -29.12,0 -54.97,-4.89 -77.52,-14.79 -22.56,-9.91 -40.17,-23.46 -53.11,-40.64 -12.8,-17.19 -19.16,-35.75 -19.16,-55.75l87.82 0c0.88,15.73 7,27.71 18.29,36.15 11.38,8.34 26.6,12.51 45.55,12.51 17.73,0 31.21,-3.23 40.29,-9.59 9.09,-6.46 13.7,-14.91 13.7,-25.32zm285.44 -320.21l0 81.28 59.36 0 0 65.02 -59.36 0 0 164.63c0,12.2 2.52,20.95 7.45,26.25 4.93,5.32 14.35,7.92 28.25,7.92 10.18,0 19.26,-0.72 27.26,-2.08l0 66.69c-18.17,5.31 -36.89,7.91 -56.18,7.91 -65.05,0 -98.22,-31.15 -99.42,-93.57l0 -177.76 -50.71 0 0 -65.02 50.71 0 0 -81.28 92.63 0zm343.61 377.92c-22.89,26.47 -54.53,39.7 -94.95,39.7 -37.21,0 -65.59,-10.21 -85.19,-30.52 -19.6,-20.32 -29.56,-50.12 -30,-89.4l0 -216.42 92.75 0 0 213.5c0,34.39 16.43,51.58 49.38,51.58 31.43,0 53.01,-10.42 64.84,-31.16l0 -233.92 92.96 0 0 330.1 -87.27 0 -2.53 -33.46zm169.6 -133.99c0,-51.57 12.16,-92.53 36.36,-123.06 24.31,-30.52 57.47,-45.85 99.64,-45.85 33.83,0 61.76,11.98 83.77,36.06l0 -168.59 92.95 0 0 468.89 -83.65 0 -4.49 -35.12c-23.11,27.61 -52.89,41.36 -89.25,41.36 -40.83,0 -73.58,-15.32 -98.32,-45.95 -24.65,-30.63 -37.01,-73.26 -37.01,-127.75zm92.74 6.25c0,31.05 5.59,54.8 16.97,71.37 11.29,16.56 27.82,24.81 49.39,24.81 28.68,0 48.83,-11.57 60.67,-34.6l0 -130.87c-11.61,-23.03 -31.55,-34.6 -60.02,-34.6 -44.67,0 -67.01,34.6 -67.01,103.89zm414.45 161.19l-92.97 0 0 -330.1 92.97 0 0 330.1zm-98.43 -415.34c0,-13.13 4.59,-24.07 13.9,-32.62 9.31,-8.54 22.01,-12.81 38.1,-12.81 15.77,0 28.36,4.27 37.79,12.81 9.41,8.55 14.13,19.49 14.13,32.62 0,13.45 -4.72,24.49 -14.25,33.04 -9.52,8.54 -22.12,12.81 -37.67,12.81 -15.65,0 -28.25,-4.27 -37.77,-12.81 -9.52,-8.55 -14.23,-19.59 -14.23,-33.04zm184.93 247.27c0,-32.83 6.67,-62 19.93,-87.63 13.25,-25.64 32.31,-45.54 57.26,-59.6 24.86,-14.07 53.77,-21.05 86.73,-21.05 46.87,0 85.08,13.65 114.76,40.95 29.57,27.2 46.1,64.3 49.5,111.08l0.65 22.6c0,50.75 -14.89,91.39 -44.56,122.02 -29.8,30.63 -69.65,45.95 -119.69,45.95 -50.05,0 -90.01,-15.32 -119.78,-45.85 -29.9,-30.52 -44.8,-72 -44.8,-124.51l0 -3.96zm92.74 6.24c0,31.37 6.13,55.33 18.61,71.9 12.39,16.56 30.11,24.91 53.23,24.91 22.45,0 39.97,-8.24 52.56,-24.6 12.71,-16.36 18.94,-42.62 18.94,-78.67 0,-30.74 -6.23,-54.6 -18.94,-71.48 -12.59,-16.87 -30.34,-25.32 -53.22,-25.32 -22.67,0 -40.18,8.44 -52.57,25.22 -12.48,16.77 -18.61,42.83 -18.61,78.04z"/>
  </g>
 </g>
</svg>
